#!OML:ASF H:\Terrain\Patient Classification 1\Terrain2\Thursday\justin.ASF
:FULLY-SPECIFIED
:DEGREES
1045
root 19.9518 23.9958 22.4862 181.201 -2.96422 -175.059
lowerback 4.53525 -0.357207 3.33705
upperback 2.48168 -0.623677 3.57811
thorax 0.0217398 -0.427008 1.83345
lowerneck -12.4242 2.10746 -9.26941
upperneck 38.8142 -0.508016 3.72963
head 15.7998 -2.66729 2.73996
rclavicle 7.95139e-016 7.95139e-016
rhumerus -32.2902 -9.3944 -79.8812
rradius 28.6716
rwrist -11.7158
rhand -19.0861 12.4831
rfingers 7.12502
rthumb 7.22205 -17.3737
lclavicle 7.95139e-016 7.95139e-016
lhumerus -30.4503 5.3024 87.642
lradius 33.323
lwrist -1.70267
lhand -13.6282 23.6385
lfingers 7.12502
lthumb 12.4876 53.2454
rfemur -8.69485 -6.11696 29.053
rtibia 30.9511
rfoot -21.0832 -3.45424
rtoes 21.1126
lfemur -11.1531 8.88803 -12.8855
ltibia 38.6165
lfoot -17.2838 2.44185
ltoes -4.04061
1046
root 19.9685 24.0068 22.4733 181.143 -2.98815 -174.977
lowerback 4.65758 -0.662572 2.93207
upperback 2.05813 -1.02291 4.00798
thorax -0.465211 -0.638751 2.52964
lowerneck -10.9198 2.64872 -9.46145
upperneck 38.5645 0.147952 3.35733
head 15.2501 -2.53747 2.68517
rclavicle 4.27387e-015 -2.54444e-014
rhumerus -32.7796 -8.05843 -79.5597
rradius 28.5969
rwrist -11.6653
rhand -19.0375 12.3947
rfingers 7.12502
rthumb 7.269 -17.4604
lclavicle 4.27387e-015 -2.54444e-014
lhumerus -31.7516 6.28594 87.9207
lradius 33.3083
lwrist -0.970049
lhand -15.5584 21.8525
lfingers 7.12502
lthumb 10.6262 51.5638
rfemur -8.47191 -6.24523 29.2054
rtibia 30.6563
rfoot -20.9645 -3.5039
rtoes 20.8068
lfemur -11.8823 8.90985 -12.6754
ltibia 39.9452
lfoot -16.7765 2.15235
ltoes -2.77358
1047
root 19.9825 24.0151 22.4619 181.159 -2.91322 -174.903
lowerback 4.76665 -0.405382 3.41116
upperback 2.37229 -0.678449 3.76863
thorax -0.217214 -0.463108 1.99523
lowerneck -12.005 2.29548 -9.22745
upperneck 38.7163 -0.234412 3.52703
head 15.6231 -2.58574 2.6808
rclavicle 1.18277e-014 -2.38542e-015
rhumerus -31.917 -9.37639 -79.5806
rradius 28.4155
rwrist -11.2693
rhand -19.267 12.5
rfingers 7.12502
rthumb 7.04739 -17.3627
lclavicle 1.18277e-014 -2.38542e-015
lhumerus -30.906 5.71799 87.871
lradius 32.8246
lwrist -1.50759
lhand -14.1342 22.2701
lfingers 7.12502
lthumb 11.9997 51.9061
rfemur -8.28311 -6.20596 29.34
rtibia 30.3286
rfoot -20.7022 -3.5305
rtoes 20.2188
lfemur -12.6849 8.63268 -12.56
ltibia 41.3474
lfoot -16.3391 2.3084
ltoes -2.3206
1048
root 19.9965 24.0142 22.4533 181.177 -2.75499 -174.671
lowerback 5.01735 -0.240056 3.86031
upperback 2.40471 -0.430595 3.68097
thorax -0.328161 -0.338692 1.64379
lowerneck -12.4584 2.14614 -9.13633
upperneck 38.9066 -0.5132 3.76806
head 15.8545 -2.65088 2.73325
rclavicle 9.54166e-015 1.01778e-013
rhumerus -31.5057 -9.97536 -79.6293
rradius 28.244
rwrist -10.9672
rhand -19.4149 12.4525
rfingers 7.12502
rthumb 6.90462 -17.4149
lclavicle 9.54166e-015 1.01778e-013
lhumerus -30.7161 5.60617 87.6969
lradius 32.4257
lwrist -2.21203
lhand -11.7935 23.4018
lfingers 7.12502
lthumb 14.256 52.8925
rfemur -8.12371 -6.0077 29.661
rtibia 30.0351
rfoot -20.4689 -3.60385
rtoes 19.8182
lfemur -13.5158 8.51121 -12.2588
ltibia 42.7869
lfoot -15.8865 2.44411
ltoes -1.70648
1049
root 20.0144 24.0175 22.4424 181.129 -2.65843 -174.486
lowerback 5.16001 -0.330436 3.88408
upperback 2.24663 -0.539389 3.86292
thorax -0.568503 -0.400849 1.82728
lowerneck -11.8903 2.29083 -9.29062
upperneck 38.8617 -0.398546 3.73385
head 15.681 -2.66458 2.75201
rclavicle -2.28602e-015 -5.56597e-015
rhumerus -31.4937 -9.53675 -79.5181
rradius 28.046
rwrist -10.7042
rhand -19.3214 12.5923
rfingers 7.12502
rthumb 6.99493 -17.2721
lclavicle -2.28602e-015 -5.56597e-015
lhumerus -31.264 6.28631 87.612
lradius 32.1714
lwrist -2.56822
lhand -11.2211 23.5577
lfingers 7.12502
lthumb 14.8074 53.0087
rfemur -7.90692 -5.82152 29.9417
rtibia 29.808
rfoot -20.3254 -3.68245
rtoes 20.1659
lfemur -14.3632 8.70011 -11.9123
ltibia 44.2703
lfoot -15.3304 1.92848
ltoes 0.229959
